HIERARCHY
ROOT Hips
{
	OFFSET 0.000000 0.000000 0.000000
	CHANNELS 6 Xposition Yposition Zposition Xrotation Yrotation Zrotation
	JOINT LeftUpLeg_virtual
	{
		OFFSET 0.000000 0.000000 0.000000
		CHANNELS 3 Xrotation Yrotation Zrotation
		JOINT LeftUpLeg
		{
			OFFSET 10.205400 -3.823500 0.155100
			CHANNELS 3 Xrotation Yrotation Zrotation
			JOINT LeftLeg
			{
				OFFSET 0.708757 -12.982077 0.567790
				CHANNELS 3 Xrotation Yrotation Zrotation
				JOINT LeftFoot
				{
					OFFSET -0.708756 -10.717838 -2.184338
					CHANNELS 3 Xrotation Yrotation Zrotation
					JOINT LeftToeBase
					{
						OFFSET 0.108149 -7.191104 7.560241
						CHANNELS 3 Xrotation Yrotation Zrotation
						JOINT LeftToe_End
						{
							OFFSET 0.070230 0.081724 4.490308
							CHANNELS 3 Xrotation Yrotation Zrotation
							End Site
							{
								OFFSET 0 0 0
							}
						}
					}
				}
			}
		}
	}
	JOINT RightUpLeg_virtual
	{
		OFFSET 0.000000 0.000000 0.000000
		CHANNELS 3 Xrotation Yrotation Zrotation
		JOINT RightUpLeg
		{
			OFFSET -10.205400 -3.823500 0.005500
			CHANNELS 3 Xrotation Yrotation Zrotation
			JOINT RightLeg
			{
				OFFSET -0.708756 -12.982134 0.610632
				CHANNELS 3 Xrotation Yrotation Zrotation
				JOINT RightFoot
				{
					OFFSET 0.708754 -10.717769 -1.945823
					CHANNELS 3 Xrotation Yrotation Zrotation
					JOINT RightToeBase
					{
						OFFSET -0.108140 -7.191069 7.372968
						CHANNELS 3 Xrotation Yrotation Zrotation
						JOINT RightToe_End
						{
							OFFSET -0.070227 0.081735 4.479403
							CHANNELS 3 Xrotation Yrotation Zrotation
							End Site
							{
								OFFSET 0 0 0
							}
						}
					}
				}
			}
		}
	}
	JOINT Spine_virtual
	{
		OFFSET 0.000000 0.000000 0.000000
		CHANNELS 3 Xrotation Yrotation Zrotation
		JOINT Spine
		{
			OFFSET 0.000000 6.876099 0.125700
			CHANNELS 3 Xrotation Yrotation Zrotation
			JOINT Spine1
			{
				OFFSET 0.000000 5.730043 0.104720
				CHANNELS 3 Xrotation Yrotation Zrotation
				JOINT Spine1_split
				{
					OFFSET 0.000000 5.730043 0.104720
					CHANNELS 3 Xrotation Yrotation Zrotation
					JOINT Spine2
					{
						OFFSET 0.000000 5.730043 0.104720
						CHANNELS 3 Xrotation Yrotation Zrotation
						JOINT Neck_virtual
						{
							OFFSET 0.000000 0.000000 0.000000
							CHANNELS 3 Xrotation Yrotation Zrotation
							JOINT Neck
							{
								OFFSET 0.000000 10.314075 0.188496
								CHANNELS 3 Xrotation Yrotation Zrotation
								JOINT Head
								{
									OFFSET 0.000000 7.643700 -2.377400
									CHANNELS 3 Xrotation Yrotation Zrotation
									JOINT HeadTop_End
									{
										OFFSET 0.000000 43.788605 -13.619600
										CHANNELS 3 Xrotation Yrotation Zrotation
										End Site
										{
											OFFSET 0 0 0
										}
									}
								}
							}
						}
						JOINT LeftShoulder_virtual
						{
							OFFSET 0.000000 0.000000 0.000000
							CHANNELS 3 Xrotation Yrotation Zrotation
							JOINT LeftShoulder
							{
								OFFSET 2.196100 4.412489 0.087492
								CHANNELS 3 Xrotation Yrotation Zrotation
								JOINT LeftShoulder_split
								{
									OFFSET 2.196100 4.412489 0.087492
									CHANNELS 3 Xrotation Yrotation Zrotation
									JOINT LeftArm
									{
										OFFSET 8.771219 -2.981674 -0.026999
										CHANNELS 3 Xrotation Yrotation Zrotation
										JOINT LeftForeArm
										{
											OFFSET 8.512804 0.000000 -0.000000
											CHANNELS 3 Xrotation Yrotation Zrotation
											JOINT LeftHand
											{
												OFFSET 18.484802 0.000000 -0.000000
												CHANNELS 3 Xrotation Yrotation Zrotation
												End Site
												{
													OFFSET 0 0 0
												}
											}
										}
									}
								}
							}
						}
						JOINT RightShoulder_virtual
						{
							OFFSET 0.000000 0.000000 0.000000
							CHANNELS 3 Xrotation Yrotation Zrotation
							JOINT RightShoulder
							{
								OFFSET -2.196100 4.412496 0.070690
								CHANNELS 3 Xrotation Yrotation Zrotation
								JOINT RightShoulder_split
								{
									OFFSET -2.196100 4.412496 0.070690
									CHANNELS 3 Xrotation Yrotation Zrotation
									JOINT RightArm
									{
										OFFSET -8.771282 -2.981682 -0.094208
										CHANNELS 3 Xrotation Yrotation Zrotation
										JOINT RightForeArm
										{
											OFFSET -8.494598 0.000000 0.000000
											CHANNELS 3 Xrotation Yrotation Zrotation
											JOINT RightHand
											{
												OFFSET -18.483803 0.000000 0.000001
												CHANNELS 3 Xrotation Yrotation Zrotation
												End Site
												{
													OFFSET 0 0 0
												}
											}
										}
									}
								}
							}
						}
					}
				}
			}
		}
	}
}
MOTION
Frames: 7
Frame Time: 0.03333333
2.156745 33.999374 -2.451719 0.000000 0.000000 0.000000 -19.956582 -30.971076 -12.182860 3.789997 19.031502 -2.698690 28.040860 7.934316 2.438883 -13.356851 4.955201 -5.604598 -9.229532 -2.466853 0.093015 0.000000 0.000000 0.000000 -18.695857 -30.034131 -11.703807 20.341832 -9.171842 0.559470 14.105755 21.600895 -1.970679 -25.576656 -26.998235 13.824809 -1.078529 10.093438 -19.764097 0.000000 0.000000 0.000000 -19.714947 -28.982064 -13.289416 8.688824 -3.854467 -0.924154 3.713856 -0.487985 -0.858679 0.118089 0.144345 -0.015540 0.000000 0.000000 0.000000 5.949047 1.416138 -0.695678 7.543606 7.630730 3.939417 -12.962189 -24.620032 14.157139 0.000000 0.000000 0.000000 6.034060 -0.695407 -0.917878 3.280883 -6.144621 -12.751342 6.827880 -8.842006 0.175701 -27.881186 12.694157 -34.153760 14.305228 -53.677804 10.436595 0.000000 0.000000 0.000000 4.645010 -0.728043 -0.221550 -2.835576 8.617296 20.201734 7.923154 1.758005 0.193460 -9.135051 1.582022 57.534911 -4.367313 41.405194 1.432694 0.000000 0.000000 0.000000 
2.450719 34.022572 -2.114325 0.000000 0.000000 0.000000 -20.505753 -33.785592 -13.061330 4.507784 20.373300 -3.552373 27.095150 8.318300 2.172677 -13.747977 6.178644 -3.497899 -7.430885 -2.090503 -0.113943 0.000000 0.000000 0.000000 -19.165019 -32.381114 -12.517987 18.894661 -9.210209 -0.357100 14.043412 21.793293 -2.265430 -23.586335 -26.355806 14.408986 -2.073305 10.556840 -19.663469 0.000000 0.000000 0.000000 -20.330977 -31.680128 -14.277240 8.796917 -3.828513 -1.245594 3.634985 -0.523066 -0.918850 0.117613 0.115347 -0.011398 0.000000 0.000000 0.000000 5.881441 1.400468 -0.693550 7.495552 7.895306 3.856880 -13.133173 -23.408585 14.088041 0.000000 0.000000 0.000000 6.015223 -0.694009 -0.896665 3.294889 -6.162910 -12.689086 6.684552 -8.885174 0.036867 -27.773576 12.702481 -33.919809 14.229830 -53.590593 10.358771 0.000000 0.000000 0.000000 4.607225 -0.761448 -0.234808 -2.872196 8.789630 20.412150 8.065944 1.710724 0.218940 -9.526776 1.763457 57.642739 -4.417176 41.147628 1.349597 0.000000 0.000000 0.000000 
2.768390 34.035789 -1.781307 0.000000 0.000000 0.000000 -21.279786 -36.489702 -14.099478 5.274932 21.319498 -4.261902 26.405778 8.194657 1.905043 -14.286688 7.139921 -2.557185 -6.247257 -1.724553 -0.383310 0.000000 0.000000 0.000000 -19.851533 -35.051848 -13.508249 17.505882 -9.251302 -0.993269 14.129231 21.432205 -2.398162 -22.159021 -25.691313 14.093419 -2.725169 10.911077 -19.010252 0.000000 0.000000 0.000000 -20.913901 -34.370649 -15.345871 8.836494 -3.813296 -1.538296 3.560272 -0.562001 -0.961489 0.137711 0.083592 -0.003339 0.000000 0.000000 0.000000 5.859895 1.369310 -0.677472 7.467396 8.190521 3.790681 -13.484630 -22.170849 13.981954 0.000000 0.000000 0.000000 6.036955 -0.697402 -0.863444 3.325478 -6.090068 -12.600575 6.604558 -8.940670 -0.081707 -27.690989 12.657448 -33.757759 14.154544 -53.571120 10.282705 0.000000 0.000000 0.000000 4.618297 -0.804912 -0.253287 -2.908488 8.960396 20.605576 8.243465 1.770595 0.243917 -9.873353 1.955706 57.740821 -4.441059 40.930288 1.240610 0.000000 0.000000 0.000000 
3.094564 34.034031 -1.449484 0.000000 0.000000 0.000000 -22.263681 -38.944410 -15.323026 5.924687 22.071299 -4.719498 26.001567 7.751761 1.649680 -14.799328 7.777952 -2.620835 -5.827880 -1.358057 -0.850151 0.000000 0.000000 0.000000 -20.756940 -37.972655 -14.736989 16.182738 -9.135022 -1.219668 14.428573 20.523257 -2.398642 -21.272766 -25.038866 12.996377 -2.906956 11.068107 -17.747268 0.000000 0.000000 0.000000 -21.524219 -37.055764 -16.525535 8.806025 -3.807957 -1.765064 3.486389 -0.604981 -0.994683 0.169272 0.045220 0.010363 0.000000 0.000000 0.000000 5.894206 1.331030 -0.655677 7.453143 8.502237 3.778934 -13.951922 -20.983429 13.933678 0.000000 0.000000 0.000000 6.093479 -0.706061 -0.829615 3.368682 -5.927583 -12.498146 6.599041 -9.002490 -0.139253 -27.654428 12.576167 -33.683146 14.096757 -53.577687 10.215500 0.000000 0.000000 0.000000 4.658211 -0.857411 -0.278888 -2.948858 9.120718 20.809655 8.454033 1.880917 0.228658 -10.159171 2.155235 57.807286 -4.430105 40.733950 1.104824 0.000000 0.000000 0.000000 
3.422505 34.016541 -1.117788 0.000000 0.000000 0.000000 -23.336289 -41.256679 -16.725021 6.649237 22.970196 -4.989598 25.766745 7.407281 1.432672 -15.505827 8.061954 -2.684876 -5.833790 -1.077372 -1.278536 0.000000 0.000000 0.000000 -21.829237 -40.991292 -16.181487 14.901017 -8.743230 -1.082678 15.027333 19.301947 -2.307047 -20.786914 -24.397695 11.747544 -2.952605 11.058061 -16.022717 0.000000 0.000000 0.000000 -22.202686 -39.680886 -17.812688 8.757003 -3.812063 -1.909050 3.411878 -0.646139 -1.038905 0.188749 -0.002420 0.030850 0.000000 0.000000 0.000000 5.988747 1.292023 -0.641855 7.437051 8.806976 3.838183 -14.481314 -19.911869 14.011030 0.000000 0.000000 0.000000 6.165561 -0.717885 -0.810770 3.422729 -5.679947 -12.384002 6.648154 -9.083098 -0.148041 -27.689759 12.485837 -33.683867 14.052033 -53.572476 10.158435 0.000000 0.000000 0.000000 4.695463 -0.920403 -0.311782 -2.997466 9.259886 21.034811 8.681135 1.966597 0.170267 -10.383207 2.355721 57.857679 -4.390144 40.555911 0.959055 0.000000 0.000000 0.000000 
3.718657 33.992161 -0.826653 0.000000 0.000000 0.000000 -24.462387 -43.586296 -18.286966 7.374399 24.279630 -5.005337 25.707927 7.216647 1.161395 -16.458664 7.972132 -2.470998 -5.462808 -0.909130 -1.584394 0.000000 0.000000 0.000000 -23.014741 -43.903052 -17.783963 13.671880 -8.088528 -0.682174 16.174161 17.897068 -2.199491 -20.590481 -23.855604 10.845112 -3.083620 10.886317 -14.132975 0.000000 0.000000 0.000000 -22.928303 -42.175380 -19.149779 8.758291 -3.840155 -1.982936 3.330370 -0.678345 -1.102589 0.191790 -0.060158 0.036712 0.000000 0.000000 0.000000 6.119762 1.258617 -0.642242 7.400408 9.089373 3.959236 -15.034817 -18.983551 14.240358 0.000000 0.000000 0.000000 6.237318 -0.726387 -0.818633 3.486919 -5.363476 -12.291141 6.727351 -9.210932 -0.110930 -27.811839 12.399355 -33.738761 14.020807 -53.531474 10.118212 0.000000 0.000000 0.000000 4.708701 -0.990677 -0.355258 -3.053153 9.354444 21.262975 8.907109 2.028160 0.055314 -10.552618 2.555661 57.925161 -4.332263 40.405487 0.824676 0.000000 0.000000 0.000000 
3.966877 33.951553 -0.601023 0.000000 0.000000 0.000000 -25.652109 -45.997707 -19.951102 8.045809 26.132160 -4.735574 25.767215 7.044693 0.746548 -17.687121 7.388813 -2.068187 -4.800327 -0.913990 -1.410299 0.000000 0.000000 0.000000 -24.274649 -46.660622 -19.495129 12.744028 -7.342085 -0.106515 17.909994 16.263715 -2.065410 -21.085757 -23.597349 10.246219 -2.834308 10.499135 -12.498222 0.000000 0.000000 0.000000 -23.747181 -44.484551 -20.532431 8.874545 -3.896218 -2.011357 3.244267 -0.684850 -1.180034 0.168838 -0.109375 0.035990 0.000000 0.000000 0.000000 6.258773 1.237703 -0.661411 7.347164 9.324109 4.110754 -15.573856 -18.185956 14.602810 0.000000 0.000000 0.000000 6.295998 -0.725266 -0.853677 3.558935 -5.007701 -12.238564 6.814674 -9.371929 -0.043193 -28.028856 12.303199 -33.819279 14.019408 -53.461981 10.117271 0.000000 0.000000 0.000000 4.690774 -1.053935 -0.406684 -3.113484 9.398326 21.452595 9.098908 2.038038 -0.065697 -10.679493 2.738275 58.044075 -4.277595 40.302597 0.730272 0.000000 0.000000 0.000000 
